<svg xmlns="http://www.w3.org/2000/svg" viewBox="0 0 512 512" width="100%" height="100%">
  <rect width="512" height="512" rx="128" fill="#007AFF" />
  <circle cx="256" cy="256" r="160" fill="#FFFFFF" opacity="0.15" />
  <!-- Piggybank / Wallet Representation inside PWA icon -->
  <path d="M376 180H136c-13.2 0-24 10.8-24 24v128c0 13.2 10.8 24 24 24h240c13.2 0 24-10.8 24-24V204c0-13.2-10.8-24-24-24zm-24 96c-13.2 0-24-10.8-24-24s10.8-24 24-24 24 10.8 24 24-10.8 24-24 24z" fill="#FFFFFF" />
  <path d="M120 180h272v-16c0-22-18-40-40-40H160c-22 0-40 18-40 40v16z" fill="#FFFFFF" opacity="0.7" />
</svg>
